Patient4_TMGait_0pt6_02_right_41_EMG.mot
version=1
nRows=39
nColumns=33
inDegrees=no
endheader
time	1LAddLong	2LGlutMax	3LGlutMed	4LIliopsoas	5LSemiMemb	6LBicFemLong	7LRecFem	8LVastMed	9LVastLat	10LGasMed	11LTibAnt	12lTibPost	13LPeroneusLong	14LSol	15LExtDigLong	16LFlexDigLong	17RAddLong	18RGlutMax	19RGlutMed	20RIliopsoas	21RSemiMemb	22RBicFemLong	23RRecFem	24RVastMed	25RVastLat	26RGasMed	27RTibAnt	28RTibPost	29RPeroneusLong	30RSol	31RExtDigLong	32RFlexDigLong
49.45	-0.013885	-0.14114	0.053101	-0.026855	-0.004425	-0.050507	0.009766	-0.000916	-0.024261	0.093384	-0.19302	-0.002594	-0.068817	0.18082	0.068665	-0.001221	-0.020447	-0.13565	0.095978	-0.07431	-0.033264	0.04364	0.001526	-0.07431	-0.040283	-0.007935	0.21591	-0.009613	0.026398	-0.007935	-0.003357	-0.003204
49.451	-0.008087	-0.15595	0.10071	-0.002136	-0.027618	0.060272	0.001984	0.002747	-0.012817	0.056305	0.000153	0.004272	-0.33157	0.091248	0.13229	0.002136	-0.020294	-0.094299	0.10468	-0.061951	-0.037384	0.050354	-0.040283	-0.054779	-0.020905	-0.010071	0.31052	-0.012054	0.000763	-0.084076	-0.002899	-0.002289
49.452	0.008087	-0.1297	0.049744	0.006409	-0.013733	0.15213	-0.000458	0.000305	0.003815	-0.040741	0.10086	0.002594	0.20218	0.094452	0.17914	0.000305	-0.014038	-0.12405	0.19043	-0.089111	-0.031586	0.059357	-0.046234	-0.10819	-0.027466	-0.014343	-0.27618	-0.006256	-0.02243	-0.11322	-0.003052	-0.000153
49.453	0.011749	-0.15854	-0.005493	0.005493	0.020905	0.12207	0.00412	0.003662	0.013428	-0.15686	0.018921	-0.001221	0.25345	0.08667	0.10635	-0.006561	-0.008545	-0.14801	0.11246	-0.12772	-0.027771	0.038452	0.011597	-0.076599	-0.034027	-0.0177	-0.54871	-0.009613	-0.0383	-0.059967	-0.003204	-0.007629
49.454	0.015411	-0.14511	-0.049133	0.00885	0.029755	0.028534	0.074768	0.007782	0.079498	-0.12863	-0.033417	-0.001984	0.014954	-0.024414	-0.079803	-0.005493	-0.010834	-0.10269	0.28854	-0.093231	-0.032349	0.039673	0.011902	-0.10559	-0.032501	-0.019531	-0.14618	-0.013275	-0.032501	-0.003662	-0.008698	0.001678
49.455	0.006409	-0.13473	-0.016327	0.019379	0.031128	-0.015564	0.11093	0.000153	0.17777	-0.092468	0.02594	0.000305	-0.20813	-0.092926	-0.30807	-0.016785	0.002899	-0.10864	0.168	-0.05127	-0.033264	0.023499	0.064392	-0.052643	-0.034027	-0.023346	0.055542	-0.006866	0.028992	0.016479	-0.002747	-0.006104
49.456	0.008087	-0.12177	0.11032	0.015564	0.010071	-0.10452	0.075531	0.006256	0.13687	-0.091553	0.095978	-0.003052	-0.15991	-0.12512	-0.36438	-0.006409	0.006714	-0.083466	-0.09079	0.023956	-0.039368	0.023041	0.1236	-0.063629	-0.024261	-0.010681	0.06897	-0.011597	0.1059	0.046844	-0.003052	-0.002747
49.457	0.004578	-0.12863	0.11185	0.002441	0.008392	-0.3421	0.049744	-0.00412	0.0737	-0.10147	0.19623	0.002289	-0.048828	-0.14145	-0.23346	0.006714	0.009003	-0.060577	0.089874	0.031738	-0.036163	0.009918	0.16159	-0.040588	-0.016937	-0.010681	0.062103	-0.009613	0.19043	0.06958	-0.003357	-0.009613
49.458	0.001984	-0.15488	0.1062	-0.002441	-0.001678	-0.30868	0.056458	0.002441	0.052643	-0.051422	0.21973	-0.002899	-0.43625	-0.064087	0.43732	0.002594	0.003357	-0.059509	0.30762	0.024719	-0.038757	0.024719	0.16922	-0.021973	-0.010681	-0.008392	-0.24796	-0.009155	0.11948	0.096588	-0.002899	-0.002747
49.459	0.001984	-0.17609	0.081024	0.009003	-0.007477	-0.031433	0.076447	0.013733	0.019684	-0.042419	0.074158	0.004578	-0.41504	-0.096741	0.16754	0.00824	-0.002136	-0.084991	0.049896	0.046234	-0.021515	0.032806	0.22003	-0.051422	-0.018921	-0.016327	-0.43808	-0.016785	-0.18036	0.026855	-0.001678	-0.009308
49.46	-0.002747	-0.16815	0.092621	0.022888	0.00473	0.15656	0.088959	0.005035	0.020294	-0.075836	-0.032501	0.010681	-0.006714	-0.023193	-0.023193	0.005188	-0.012207	-0.14847	-0.038605	0.067749	-0.037537	0.011749	0.20203	-0.06958	-0.019379	-0.007935	-0.066376	-0.00946	-0.21347	-0.066681	0.000458	-0.010376
49.461	-0.006104	-0.15717	0.078278	0.009613	0.016632	0.12283	0.10086	0.000916	0.011597	-0.09552	-0.081177	-0.002136	0.49805	0.023193	-0.079956	0.004425	-0.019379	-0.077972	-0.039673	0.075531	-0.043182	0.037689	0.15106	-0.044708	-0.023346	-0.015564	0.20157	-0.006409	-0.053101	-0.08194	-0.001526	-0.00885
49.462	-0.006256	-0.15091	0.022736	-0.002136	0.033264	0.10346	0.1329	0.005188	0.015869	-0.021667	0.00824	-0.001984	-0.023193	0.15442	0.37659	0.007324	-0.015411	-0.072632	-0.33447	0.067749	-0.033417	0.027313	0.10513	-0.072784	-0.020599	-0.006866	0.16357	-0.014343	0.041809	-0.052948	-0.000763	-0.010834
49.463	-0.012665	-0.17609	0.068054	0.001526	0.005646	0.13534	0.092163	0.00885	0.011902	0.16327	0.15213	-0.004425	0.112	0.000153	-0.29373	-0.017548	-0.010529	-0.10346	-0.34607	-0.00351	-0.046387	0.025635	0.12833	-0.049286	-0.016327	-0.010071	0.19424	-0.00946	0.32974	-0.047607	0.000916	-0.007477
49.464	-0.014496	-0.1831	0.15411	0.017548	0.001984	-0.2742	0.023804	0.017242	0.057983	0.35187	0.30518	-0.003815	0.18982	-0.21759	-0.026703	-0.01297	-0.008698	-0.0737	0.073395	-0.014343	-0.029144	0.026703	0.075378	-0.053253	-0.00885	-0.014648	-0.12985	-0.003662	0.37308	0.000763	0.001373	-0.01297
49.465	-0.014496	-0.15625	0.17349	-0.004272	0.006256	-0.39017	-0.012817	0.004578	0.067596	0.1947	0.40756	0.005951	0.14862	-0.17212	-0.02243	-0.013428	-0.01236	-0.001526	0.87006	-0.008087	-0.033875	0.027161	-0.018921	-0.055084	-0.021057	-0.018768	-0.29144	-0.011292	0.080414	0.027313	-0.000916	-0.007172
49.466	-0.009155	-0.13138	0.16953	0.002441	-0.014496	-0.27802	-0.012817	0.00824	0.032501	0.21942	0.36407	-0.011292	0.044403	0.14282	0.30624	-0.007172	-0.00824	0.016022	0.42557	-0.061035	-0.036316	0.025177	-0.11673	-0.094452	-0.005035	-0.018311	-0.12283	-0.018768	0.005341	0.1297	-0.001068	-0.009308
49.467	-0.010986	-0.14984	0.15595	-0.005798	-0.077667	-0.2301	-0.004883	0.007324	0.025177	0.28915	0.10132	0.014648	-0.053711	0.21286	0.34058	0.004578	-0.010681	-0.008392	0.1384	-0.016022	-0.028839	0.007477	-0.13031	-0.11032	-0.001221	-0.029602	0.12848	-0.011597	-0.089569	0.16769	-0.003052	-0.00351
49.468	0.011444	-0.13489	0.10742	-0.002441	0.004578	-0.13031	0.00351	-0.001831	0.07019	0.037842	-0.16968	0.014038	-0.13809	0.13901	0.81085	0.005951	-0.007324	-0.04837	-0.05661	0.044403	-0.023956	0.033569	-0.12482	-0.063934	-0.014648	-0.025787	0.22842	-0.01358	-0.20157	0.13825	-0.001068	0.000153
49.469	0.011902	-0.1236	0.08667	-0.010681	0.12192	0.068512	0.023499	0.017242	0.023499	-0.46585	-0.18829	0.001221	-0.13504	0.17303	0.89096	0.014496	-0.012665	-0.073242	-0.092773	0.094299	-0.027466	0.00885	-0.06073	-0.081329	-0.012817	-0.022278	0.19608	-0.010071	-0.21286	0.090332	-0.000305	0.000916
49.47	-0.006409	-0.13657	0.035706	0.005188	0.085907	0.20828	-0.010529	0.010071	-0.003357	-0.49057	-0.28473	-0.000305	-0.077362	0.32852	-0.29327	0.009918	-0.005646	-0.10315	-0.16083	0.09903	-0.026855	0.027008	-0.064545	-0.059204	-0.007629	-0.016479	0.23086	-0.006866	-0.028839	-0.006256	-0.006256	0.00473
49.471	-0.013885	-0.16419	0.029144	0.014648	-0.006714	0.19424	0.026398	-0.003357	0.021362	-0.2887	-0.30594	0	0.045776	0.22003	-0.66498	0.008545	-0.00473	-0.1593	-0.017242	0.091553	-0.021667	0.019226	-0.016479	-0.06546	-0.017242	-0.014496	0.23361	-0.005188	0.14954	-0.058746	-0.001831	-0.001526
49.472	0.00412	-0.12711	0.025024	0.009613	0.001373	0.20157	0.095062	0.003967	0.057526	-0.19318	-0.27649	-0.000916	0.16464	0.11185	-0.44464	0.006561	-0.001678	-0.1535	-0.014191	0.092163	-0.018616	0.021973	0.005188	-0.08728	-0.037842	-0.016479	0.17395	-0.012512	0.084229	-0.036011	-0.003204	0.001831
49.473	0.010529	-0.10849	0.041962	0.00351	0.063629	0.26977	0.13641	-0.001068	0.053711	-0.16357	-0.17288	0.001068	0.11917	0.015411	-0.64301	-0.012665	-0.003967	-0.12451	0.20508	0.016479	-0.024872	0.008698	-0.018311	-0.070953	-0.018463	-0.015411	-0.072327	-0.007935	0.055542	-0.046692	-0.00061	-0.009766
49.474	0.003052	-0.085297	0.1062	-0.002136	0.029144	0.31448	0.11292	0.006104	-0.054626	-0.14938	-0.080566	0.002136	0.061188	-0.19821	-0.63416	-0.020752	0.003967	-0.11322	0.17105	-0.045929	-0.016632	0.028839	-0.024567	-0.067902	-0.023193	-0.005951	-0.35584	-0.006866	0.021973	-0.051727	-0.007782	-0.009003
49.475	-0.001373	-0.063171	0.092621	0.01358	-0.043945	0.22873	0.097198	-0.001068	-0.0737	-0.11826	-0.012665	0.000458	-0.001984	-0.21133	-0.61142	-0.003357	0.011597	-0.085602	0.074615	-0.085907	-0.019073	0.028687	-0.001221	-0.080566	-0.011597	-0.020905	-0.34988	-0.010834	-0.096588	-0.051117	-0.001678	-0.012512
49.476	-0.000153	-0.084534	0.052948	0.021973	-0.11566	0.16861	0.083466	0.005341	-0.062256	-0.15625	0.049591	0.001831	-0.036469	-0.063324	-0.52536	0.00061	0.02243	-0.095367	0.077362	-0.10086	-0.020905	0.026245	0.007935	-0.076599	-0.008087	-0.016479	-0.2504	-0.004425	-0.10147	-0.079041	-0.002899	-0.011902
49.477	-0.009613	-0.11581	-0.011292	0.019989	-0.16037	0.095673	0.079041	0.010071	-0.068665	-0.16907	0.048676	0.00351	-0.077057	0.065613	-0.1471	-0.003204	0.018616	-0.10284	0.073547	-0.08255	-0.022278	0.028839	-0.019073	-0.052185	-0.003662	-0.012817	0.007172	-0.012207	-0.063934	-0.099487	-0.00061	-0.010986
49.478	-0.007324	-0.088043	-0.076752	0.009155	-0.079803	-0.20065	0.04776	0.013275	-0.052185	-0.09613	0.032043	0.005188	-0.13718	0.036926	0.095215	-0.007782	0.011292	-0.099335	0.014801	-0.062103	-0.013733	0.017853	-0.00946	-0.046082	-0.005188	-0.012054	0.48584	-0.006866	-0.00946	-0.1297	-0.000153	-0.014954
49.479	0.000763	-0.042419	-0.11215	0.009308	0.011444	-0.22156	0.031281	0.016785	-0.033875	-0.03891	0.015717	0.004883	-0.20935	-0.058899	0.15366	0.002899	-0.001678	-0.10727	-0.010376	-0.022278	-0.003967	0.02655	0.03006	-0.054321	-0.016937	-0.011444	0.71228	-0.005188	-0.016327	-0.12283	-0.001068	-0.018005
49.48	0.025024	0.001984	-0.014191	-0.003204	0.14603	0.01236	0.032654	-0.003357	0.001984	-0.15076	0.045776	0.007019	-0.19043	-0.14893	0.14999	-0.004425	-0.001373	-0.036774	0.075378	0.007782	-0.007477	0.021515	-0.023499	-0.055695	0.002441	-0.011444	0.60821	-0.008698	-0.093231	-0.055389	-0.002747	-0.017395
49.481	0.031433	-0.006104	0.087891	0.006866	0.19196	-0.053558	0.095062	-0.007935	-0.01709	-0.22766	0.029755	0.003815	-0.11047	-0.12299	0.12238	-0.003204	-0.01709	-0.027313	0.052795	0.024414	-0.00473	0.012512	0.020447	-0.063934	0.000458	-0.019836	0.48752	-0.009003	-0.12985	0.032349	-0.004883	-0.014191
49.482	0.017853	-0.001984	0.057526	-0.010223	0.061493	-0.038452	0.16419	0.001526	-0.001221	0.14847	0.014648	0.003052	0.021667	0.035553	0.15503	0.000916	-0.014038	-0.044861	-0.004883	-0.054016	-0.013275	0.024109	0.011292	-0.06546	0.010071	-0.011292	-0.006561	-0.003967	-0.002747	0.05127	-0.002899	-0.013733
49.483	0.016937	-0.01297	0.019684	0.001221	0.094604	-0.19959	0.21255	-0.003052	0.091553	0.24628	-0.010529	-0.003052	0.076904	0.032654	0.23453	0.003357	-0.016479	-0.047607	-0.045776	-0.050354	-0.005341	0.023041	-0.014954	-0.083313	0.015106	-0.006256	-0.65582	-0.003204	0.20203	-0.030518	-0.002136	-0.003204
49.484	0.009918	-0.02182	0.091705	-0.002899	0.061951	-0.092926	0.23209	0.00473	0.071106	0.28137	0.007477	-0.012512	0.10803	-0.054474	0.28366	0.00412	-0.009613	-0.032806	-0.080719	0.052338	0.002136	-0.000763	-0.017548	-0.051422	-0.003967	-0.003052	-0.88242	-0.00473	0.215	-0.004578	-0.000153	-0.002899
49.485	0.005188	-0.034637	0.067749	0.004578	-0.020294	-0.045624	0.17487	-0.007324	0.099487	0.68848	0.014038	0.008392	0.10544	-0.11536	0.22476	-0.007172	0.001831	-0.031891	-0.069122	0.10757	0.018768	-0.011597	0.015869	-0.097046	0.001678	-0.011139	-0.26199	-0.000916	0.072021	-0.011902	-0.007019	-0.004578
49.486	0.004272	-0.019226	0.091248	0.011749	-0.072021	-0.092163	0.12817	-0.009766	0.040894	0.17731	0.007172	-0.010681	0.13687	-0.15167	0.1503	0.008392	0.00885	-0.032654	-0.14297	0.06073	-0.002289	-0.004578	0.023041	-0.079041	-0.000458	-0.005341	-0.1088	-0.002747	0.027008	-0.050964	-0.000153	-0.00824
49.487	0.001984	-0.056305	0.055542	0.002289	-0.057068	0.018921	0.096893	-0.000458	0.023804	-0.17197	0.00946	-0.010071	0.13153	-0.22415	0.1149	0.00473	0.022125	-0.11215	-0.029907	0.021057	-0.019379	0.018616	-0.000916	-0.052948	0.012512	-0.006561	-0.063324	-0.002136	0.072174	-0.027924	-0.000458	-0.014038
49.488	0.002594	-0.066071	0.005493	0.016174	0.036011	-0.027618	0.13825	-0.001831	0.044556	-0.014801	0.020905	0.001526	0.059662	-0.12787	0.084534	0.001373	0.010071	-0.084381	-0.093842	0.037842	-0.026245	0.039215	0.029144	-0.033264	0.027771	-0.009766	-0.087128	-0.006561	0.004883	-0.007019	-0.002136	-0.02243
